# xmcd
# Track frame offsets:
# 150
# 11226
# 30139
# 43536
# 59911
# 76264
# 92089
# 108653
# 128014
# 145038
# 155674
# 170231
# 182842
# 193348
# 208108
# 220123
# 232662
# 244357
# 259491
#
# Disc length: 3636 seconds
# Revision: 0
# Processed by: cddbd v1.4PL0 Copyright (c) Steve Scherf et al.
# Submitted via: VisiTrax 2.9.5.180 - For more info visit www.synapsa.com
#
DISCID=170e3213
DTITLE=Sally Harper Bates - Looking Back
DYEAR=2003
DGENRE=Cowboy
TTITLE0=Mesa Moon
TTITLE1="Norther Comin" On
TTITLE2=He's Goin" Courtin'
TTITLE3=Loved Like That
TTITLE4=Wagon Widow
TTITLE5=Paso Por Aqui
TTITLE6=No Place For Gunsel
TTITLE7=Wild Cliff Roses
TTITLE8=Causualty Of Cowboyography
TTITLE9=Call Of The Mogollon
TTITLE10=Born 50 Years Too Late
TTITLE11=Listen To The Wind Blow
TTITLE12=He's Waiting For Mama
TTITLE13=Ride To The Cattle
TTITLE14=Cheyene Autumn Winds
TTITLE15=Cold Fall Rain
TTITLE16=Come Ride The Hills
TTITLE17=His Pleasure
TTITLE18=Shippin' Time
EXTD=
EXTT0=
EXTT1=
EXTT2=
EXTT3=
EXTT4=
EXTT5=
EXTT6=
EXTT7=
EXTT8=
EXTT9=
EXTT10=
EXTT11=
EXTT12=
EXTT13=
EXTT14=
EXTT15=
EXTT16=
EXTT17=
EXTT18=
PLAYORDER=
